<svg width="60" height="60" viewBox="0 0 60 60" fill="none" xmlns="http://www.w3.org/2000/svg">
<rect x="1" y="1" width="58" height="58" fill="#F4F4EA" stroke="black" stroke-width="2"/>
<path d="M46.008 24.3085H41.8858C41.4323 23.2291 40.8553 22.2325 40.1545 21.319L42.2156 17.7068C42.5043 17.2086 42.3392 16.5857 41.8446 16.2952L34.7133 12.1431C34.2188 11.8523 33.6003 12.0185 33.3119 12.5167L31.2508 16.1289C30.0966 15.963 28.9424 15.963 27.8294 16.1289L25.7683 12.5167C25.4796 12.0185 24.8614 11.8523 24.3668 12.1431L17.2355 16.2952C16.741 16.5859 16.5759 17.2086 16.8646 17.7068L18.9257 21.319C18.225 22.2325 17.6479 23.2291 17.1944 24.3085H13.0305C12.4535 24.3085 12 24.7653 12 25.3466V33.6507C12 34.232 12.4535 34.6887 13.0305 34.6887H17.1527C17.6062 35.7682 18.1833 36.7648 18.884 37.6782L16.8229 41.2905C16.5343 41.7886 16.6993 42.4116 17.1939 42.7021L24.3252 46.8542C24.8197 47.145 25.4382 46.9787 25.7266 46.4806L27.7877 42.8683C28.9419 43.0343 30.0961 43.0343 31.2091 42.8683L33.2702 46.4806C33.4764 46.8128 33.8062 47.0204 34.1771 47.0204C34.3419 47.0204 34.548 46.979 34.6717 46.8959L41.803 42.7438C42.2975 42.453 42.4626 41.8304 42.1739 41.3322L40.1128 37.7199C40.8135 36.8065 41.3906 35.8098 41.8441 34.7304H45.9663C46.5434 34.7304 46.9968 34.2737 46.9968 33.6924L46.9974 25.3467C47.0385 24.7655 46.5851 24.3087 46.008 24.3087L46.008 24.3085ZM44.9774 32.6127H41.185C40.7316 32.6127 40.3607 32.9035 40.1956 33.3185C39.7422 34.6473 39.0414 35.8513 38.1345 36.9308C37.8458 37.263 37.8047 37.7611 38.0109 38.1347L39.9072 41.4564L34.5483 44.5705L32.652 41.2488C32.4458 40.9166 32.116 40.7089 31.7451 40.7089H31.5389C30.1375 40.958 28.7771 40.958 27.3756 40.7089C26.9633 40.6258 26.5098 40.8335 26.3039 41.2071L24.4076 44.5288L19.0487 41.4147L20.945 38.093C21.1512 37.7194 21.1098 37.2209 20.8214 36.8891C19.9145 35.8096 19.2137 34.6053 18.7603 33.2768C18.5955 32.8615 18.2243 32.571 17.7709 32.571H13.9785V26.3429H17.7709C18.2244 26.3429 18.5953 26.0521 18.7603 25.6371C19.2137 24.3082 19.9145 23.1043 20.8214 22.0248C21.1101 21.6926 21.1512 21.1945 20.945 20.8209L19.0487 17.4991L24.4076 14.3851L26.3039 17.7068C26.5101 18.0804 26.9635 18.2881 27.3756 18.205C28.7771 17.9559 30.1375 17.9559 31.5389 18.205C31.9513 18.2881 32.4048 18.0804 32.6106 17.7068L34.507 14.3851L39.8659 17.4991L37.9695 20.8209C37.7634 21.1945 37.8048 21.6929 38.0932 22.0248C39.0001 23.1043 39.7008 24.3085 40.1543 25.6371C40.319 26.0524 40.6902 26.3429 41.1437 26.3429H44.9361L44.9364 32.6127L44.9774 32.6127Z" fill="black"/>
<path d="M29.5189 24.3088C26.6746 24.3088 24.3662 26.6338 24.3662 29.4989C24.3662 32.3639 26.6746 34.689 29.5189 34.689C32.3633 34.689 34.6717 32.3639 34.6717 29.4989C34.6717 26.6338 32.3633 24.3088 29.5189 24.3088ZM29.5189 32.6129C27.8288 32.6129 26.4273 31.2013 26.4273 29.4989C26.4273 27.7964 27.8288 26.3848 29.5189 26.3848C31.2091 26.3848 32.6106 27.7964 32.6106 29.4989C32.6106 31.2013 31.2091 32.6129 29.5189 32.6129Z" fill="black"/>
</svg>
