<svg width="60" height="60" viewBox="0 0 60 60" fill="none" xmlns="http://www.w3.org/2000/svg">
<rect x="1" y="1" width="58" height="58" fill="#F4F4EA" stroke="black" stroke-width="2"/>
<path d="M46.0279 12.0001C37.4217 12.0001 29.4613 15.7137 23.8829 21.7928H12.9725C12.5795 21.7928 12.2246 22.0313 12.0741 22.3972C11.9235 22.7631 12.0068 23.1841 12.2848 23.4642L18.589 29.8141C17.9372 31.2595 17.3897 32.7675 16.9642 34.3345C16.8719 34.6736 16.9677 35.0364 17.2146 35.2851L23.8828 42.0009C24.0675 42.1873 24.3157 42.2875 24.5704 42.2875C24.6559 42.2875 24.7419 42.2761 24.8268 42.2531C26.3822 41.8247 27.8796 41.273 29.3146 40.6165L35.6188 46.9664C35.8041 47.1544 36.0528 47.2538 36.3056 47.2538C36.431 47.2538 36.5574 47.2295 36.6775 47.1795C37.041 47.0279 37.2778 46.6705 37.2778 46.2745V35.285C43.3132 29.6663 47 21.6487 47 12.9794C47 12.4384 46.565 12.0001 46.0279 12.0001ZM24.8537 40.2101L18.9935 34.3074C21.3647 26.213 27.1525 19.7883 34.4948 16.4581L42.5746 24.5958C39.2687 31.9914 32.89 37.8216 24.8539 40.2096L24.8537 40.2101ZM45.0383 13.9761C44.9333 16.982 44.3547 19.8936 43.3695 22.6273L36.4497 15.6576C39.1635 14.6655 42.0538 14.0822 45.0386 13.9764L45.0383 13.9761ZM15.3197 23.7514H22.2337C21.2148 25.0694 20.3007 26.4771 19.5035 27.9649L15.3197 23.7514ZM35.3335 43.9103L31.1503 39.6968C32.6274 38.8938 34.0249 37.9729 35.3335 36.9467V43.9103Z" fill="black"/>
<path d="M12.9725 47.2538C13.2215 47.2538 13.4702 47.1582 13.6601 46.9672L17.549 43.0501C17.929 42.6678 17.929 42.0476 17.549 41.6653C17.1695 41.2825 16.5534 41.2825 16.1742 41.6653L12.2853 45.5824C11.9053 45.9647 11.9053 46.5849 12.2853 46.9672C12.4747 47.1582 12.7234 47.2538 12.9725 47.2538Z" fill="black"/>
<path d="M17.1461 46.967C17.336 47.158 17.5847 47.2537 17.8337 47.2537C18.0828 47.2537 18.3315 47.158 18.5214 46.967L21.438 44.0292C21.8181 43.647 21.8181 43.0267 21.438 42.6445C21.0585 42.2617 20.4425 42.2617 20.0633 42.6445L17.1466 45.5823C16.7666 45.9642 16.7666 46.5845 17.1461 46.967Z" fill="black"/>
<path d="M12.9725 42.3575C13.2215 42.3575 13.4702 42.2618 13.6601 42.0708L16.5768 39.133C16.9568 38.7508 16.9568 38.1305 16.5768 37.7483C16.1973 37.3655 15.5812 37.3655 15.202 37.7483L12.2853 40.6861C11.9053 41.0683 11.9053 41.6886 12.2853 42.0708C12.4747 42.2618 12.7234 42.3575 12.9725 42.3575Z" fill="black"/>
<path d="M31.4446 22.7721C28.764 22.7721 26.5836 24.9683 26.5836 27.6684C26.5836 30.3686 28.764 32.5648 31.4446 32.5648C34.1253 32.5648 36.3057 30.3686 36.3057 27.6684C36.3057 24.9683 34.1253 22.7721 31.4446 22.7721ZM31.4446 30.6062C29.8363 30.6062 28.528 29.2884 28.528 27.6684C28.528 26.0484 29.8363 24.7306 31.4446 24.7306C33.053 24.7306 34.3613 26.0484 34.3613 27.6684C34.3613 29.2884 33.053 30.6062 31.4446 30.6062Z" fill="black"/>
</svg>
