<svg width="27" height="40" viewBox="0 0 27 40" fill="none" xmlns="http://www.w3.org/2000/svg">
<path d="M21.4532 13.9142C21.4741 14.2916 21.4322 14.6771 21.382 15.0505C21.3987 14.9409 21.4113 14.8354 21.428 14.7258C21.3107 15.5376 21.0845 16.333 20.7578 17.0919L20.8834 16.7997C20.674 17.2786 20.4268 17.7453 20.1378 18.1836C19.9828 18.419 19.8152 18.6422 19.6476 18.8655C19.8906 18.5408 19.7063 18.7924 19.6476 18.8614C19.6057 18.9101 19.5639 18.9588 19.522 19.0075C19.413 19.1293 19.3041 19.251 19.191 19.3687C18.9606 19.6082 18.7135 19.8354 18.4621 20.0546C18.3406 20.1561 18.2191 20.2535 18.0976 20.3509C18.0558 20.3833 17.8379 20.5497 18.0181 20.4158C18.194 20.2859 17.9594 20.4564 17.9091 20.4929C17.4106 20.8501 16.8912 21.1707 16.3507 21.467C15.7391 21.7998 15.1107 22.092 14.4656 22.3558C14.5662 22.3152 14.6667 22.2746 14.7673 22.234C12.7439 23.062 10.6158 23.5287 8.5212 24.1456C8.07296 24.2755 7.64151 24.4297 7.21422 24.6083C6.58166 24.8721 6.02451 25.2333 5.49665 25.6594C4.71745 26.2844 4.07652 27.1124 3.65759 28.0012C3.42299 28.4923 3.18421 29.0239 3.09624 29.5637C3.04178 29.8965 3.04178 30.2009 3.22191 30.5013C3.37273 30.7529 3.67434 30.9964 3.97178 31.0613C4.29434 31.1303 4.65462 31.1182 4.93949 30.9396C5.19922 30.7772 5.46733 30.5175 5.5176 30.2131C5.58044 29.8357 5.71868 29.4623 5.87368 29.1133C5.83179 29.2107 5.78989 29.3081 5.748 29.4055C5.8653 29.1417 5.99935 28.886 6.15017 28.6384C6.24233 28.4923 6.33867 28.3503 6.43921 28.2123C6.46435 28.1758 6.49367 28.1392 6.523 28.1027C6.63192 27.9607 6.33449 28.33 6.42665 28.2245C6.48949 28.1514 6.54813 28.0784 6.61097 28.0094C6.73664 27.8673 6.87489 27.7334 7.01313 27.6076C7.08854 27.5386 7.16813 27.4696 7.25192 27.4046C7.28543 27.3762 7.32313 27.3519 7.35665 27.3235C7.45719 27.2423 7.07178 27.5264 7.27705 27.3844C7.65408 27.1206 8.05625 26.8973 8.48353 26.7188L8.18191 26.8405C9.3088 26.3819 10.5321 26.1384 11.7092 25.8178C13.4017 25.3551 15.0689 24.8032 16.6566 24.0645C18.3868 23.2569 20.0582 22.1651 21.3066 20.7406C22.4084 19.4784 23.2336 18.0011 23.6525 16.394C23.8117 15.7852 23.9123 15.1602 23.9583 14.5352C23.9751 14.3323 23.9835 14.1253 23.9751 13.9224C23.9374 13.2893 23.4221 12.6723 22.7184 12.7048C22.0607 12.7251 21.4114 13.2325 21.4532 13.9143L21.4532 13.9142Z" fill="black"/>
<path d="M5.5543 32.9158V30.3346V24.1778V16.7343V10.2651C5.5543 9.22204 5.57106 8.18306 5.5543 7.14008V7.09544C5.5543 6.45826 4.97619 5.84949 4.29757 5.87791C3.61473 5.90632 3.04083 6.41364 3.04083 7.09544V9.67662V15.8334V23.2769V29.7461C3.04083 30.7892 3.02408 31.8281 3.04083 32.8711V32.9158C3.04083 33.5529 3.61894 34.1617 4.29757 34.1333C4.98041 34.1049 5.5543 33.5976 5.5543 32.9158Z" fill="black"/>
<path d="M24.4861 10.976C24.4861 11.1099 24.4777 11.2398 24.461 11.3697C24.4777 11.2601 24.4903 11.1546 24.5071 11.045C24.4694 11.3007 24.4023 11.5442 24.3018 11.7836L24.4275 11.4914C24.3562 11.6578 24.2683 11.8161 24.1677 11.9622C24.1635 11.9703 24.0839 12.0961 24.0756 12.0921C24.0714 12.0921 24.285 11.8445 24.1719 11.9703C24.1049 12.0434 24.0421 12.1164 23.9708 12.1854C23.908 12.2463 23.8368 12.3072 23.7698 12.364C23.6902 12.4289 23.5687 12.4655 23.8745 12.2869C23.8368 12.3112 23.7991 12.3396 23.7614 12.364C23.598 12.4695 23.4304 12.5547 23.2503 12.6278L23.5519 12.5061C23.3048 12.6035 23.0534 12.6684 22.7895 12.7049C22.9026 12.6887 23.0115 12.6765 23.1246 12.6603C22.8523 12.6927 22.5842 12.6927 22.312 12.6603C22.4251 12.6765 22.534 12.6887 22.6471 12.7049C22.3832 12.6684 22.1318 12.6035 21.8847 12.5061L22.1863 12.6278C22.0145 12.5588 21.8511 12.4736 21.7003 12.3762C21.692 12.3721 21.5621 12.295 21.5663 12.2869C21.5663 12.2828 21.8218 12.4898 21.692 12.3802C21.6165 12.3153 21.5411 12.2544 21.4699 12.1854C21.4071 12.1246 21.3443 12.0556 21.2856 11.9906C21.2186 11.9135 21.1809 11.7958 21.3652 12.0921C21.3401 12.0556 21.3107 12.019 21.2856 11.9825C21.1767 11.8242 21.0887 11.6619 21.0133 11.4874C21.0552 11.5848 21.0971 11.6822 21.139 11.7796C21.0384 11.5401 20.9714 11.2966 20.9337 11.0409C20.9505 11.1505 20.963 11.256 20.9798 11.3656C20.9463 11.1018 20.9463 10.8421 20.9798 10.5783C20.963 10.6879 20.9505 10.7934 20.9337 10.903C20.9714 10.6473 21.0384 10.4038 21.139 10.1643C21.0971 10.2617 21.0552 10.3591 21.0133 10.4565C21.0845 10.2901 21.1725 10.1319 21.273 9.98575C21.2772 9.97764 21.3568 9.85182 21.3652 9.85588C21.3694 9.85588 21.1557 10.1034 21.2689 9.97763C21.3359 9.90458 21.3987 9.83152 21.4699 9.76254C21.5328 9.70166 21.604 9.64078 21.671 9.58397C21.7506 9.51903 21.8721 9.4825 21.5663 9.66108C21.604 9.63673 21.6417 9.60832 21.6794 9.58397C21.8428 9.47845 22.0103 9.39322 22.1905 9.32016C22.0899 9.36075 21.9894 9.40134 21.8889 9.44192C22.136 9.34451 22.3874 9.27958 22.6513 9.24305C22.5382 9.25928 22.4293 9.27146 22.3161 9.28769C22.5884 9.25523 22.8566 9.25523 23.1288 9.28769C23.0157 9.27146 22.9068 9.25928 22.7937 9.24305C23.0576 9.27958 23.309 9.34451 23.5561 9.44192C23.4556 9.40133 23.355 9.36074 23.2545 9.32016C23.4262 9.38916 23.5896 9.47439 23.7404 9.57179C23.7488 9.57585 23.8787 9.65296 23.8745 9.66107C23.8745 9.66513 23.619 9.45815 23.7488 9.56773C23.8242 9.63267 23.8996 9.69354 23.9708 9.76254C24.0337 9.82341 24.0965 9.89241 24.1552 9.95734C24.2222 10.0345 24.2599 10.1522 24.0756 9.85588C24.1007 9.89241 24.13 9.92893 24.1552 9.96546C24.2641 10.1237 24.3521 10.2861 24.4275 10.4606L24.3018 10.1684C24.4023 10.4078 24.4694 10.6513 24.5071 10.907C24.4903 10.7975 24.4777 10.6919 24.461 10.5824C24.4777 10.7122 24.4861 10.8421 24.4861 10.976C24.4903 11.6132 25.06 12.222 25.7428 12.1936C26.4173 12.1651 27.008 11.6578 26.9996 10.976C26.9912 10.1521 26.744 9.29987 26.2413 8.62617C25.6926 7.89158 24.9846 7.36804 24.1048 7.05145C22.5255 6.47921 20.5398 6.99058 19.4716 8.25681C18.86 8.97923 18.5123 9.79093 18.4285 10.7244C18.3573 11.5361 18.5877 12.4086 19.0234 13.1067C19.4465 13.7845 20.0833 14.377 20.8289 14.7099C21.7212 15.1076 22.6512 15.2172 23.6189 15.0386C25.5836 14.6733 26.9786 12.8755 26.9996 10.9801C27.0038 10.3429 26.4173 9.73414 25.7429 9.76256C25.0558 9.78691 24.4945 10.2902 24.4861 10.9761L24.4861 10.976Z" fill="black"/>
<path d="M6.07034 4.15764C6.07034 4.29157 6.06196 4.42144 6.04521 4.55131C6.06196 4.44173 6.07453 4.33622 6.09129 4.22663C6.05358 4.48232 5.98656 4.72583 5.88602 4.96528L6.01169 4.67307C5.94047 4.83947 5.8525 4.99775 5.75196 5.14386C5.74778 5.15197 5.66818 5.27779 5.6598 5.27373C5.65561 5.27373 5.86926 5.02616 5.75615 5.15197C5.68913 5.22503 5.62629 5.29808 5.55507 5.36707C5.49224 5.42795 5.42102 5.48882 5.35399 5.54564C5.2744 5.61058 5.15291 5.6471 5.45872 5.46853C5.42102 5.49288 5.38332 5.52129 5.34561 5.54564C5.18224 5.65116 5.01467 5.73639 4.83453 5.80944L5.13615 5.68769C4.88899 5.78509 4.63764 5.85003 4.37372 5.88656C4.48684 5.87032 4.59575 5.85815 4.70886 5.84191C4.43656 5.87438 4.16845 5.87438 3.89619 5.84191C4.0093 5.85815 4.11821 5.87032 4.23132 5.88656C3.9674 5.85003 3.71605 5.78509 3.46889 5.68769L3.77051 5.80944C3.59876 5.74045 3.43538 5.65522 3.28457 5.55782C3.27619 5.55376 3.14632 5.47665 3.15051 5.46853C3.15051 5.46448 3.40605 5.67146 3.27619 5.56188C3.20078 5.49694 3.12537 5.43607 3.05416 5.36707C2.99133 5.30619 2.92849 5.2372 2.86984 5.17226C2.80282 5.09515 2.76511 4.97746 2.94944 5.27373C2.9243 5.2372 2.89498 5.20067 2.86984 5.16414C2.76092 5.00586 2.67295 4.84353 2.59755 4.66901C2.63944 4.76641 2.68133 4.86381 2.72322 4.96122C2.62268 4.72176 2.55565 4.47826 2.51795 4.22258C2.53471 4.33216 2.54727 4.43767 2.56403 4.54725C2.53051 4.28345 2.53051 4.02371 2.56403 3.75994C2.54727 3.86952 2.53471 3.97503 2.51795 4.08461C2.55565 3.82893 2.62268 3.58542 2.72322 3.34597C2.68133 3.44337 2.63943 3.54078 2.59755 3.63818C2.66876 3.47178 2.75673 3.3135 2.85727 3.16739C2.86146 3.15928 2.94106 3.03346 2.94943 3.03752C2.95362 3.03752 2.73997 3.28509 2.85308 3.15927C2.92011 3.08622 2.98295 3.01317 3.05416 2.94418C3.117 2.8833 3.18822 2.82242 3.25524 2.76561C3.33484 2.70067 3.45632 2.66414 3.15051 2.84272C3.18822 2.81837 3.22592 2.78996 3.26362 2.76561C3.427 2.66009 3.59457 2.57486 3.7747 2.50181C3.67416 2.54239 3.57362 2.58298 3.47308 2.62356C3.72025 2.52615 3.97159 2.46122 4.23551 2.42469C4.1224 2.44092 4.01349 2.4531 3.90038 2.46933C4.17267 2.43687 4.44078 2.43687 4.71305 2.46933C4.59994 2.4531 4.49103 2.44092 4.37791 2.42469C4.64183 2.46122 4.89319 2.52615 5.14034 2.62356C5.0398 2.58297 4.93926 2.54238 4.83872 2.50181C5.01048 2.5708 5.17386 2.65603 5.32467 2.75343C5.33305 2.75749 5.46291 2.8346 5.45872 2.84271C5.45872 2.84677 5.20319 2.63979 5.33305 2.74937C5.40846 2.81431 5.48386 2.87518 5.55507 2.94418C5.61791 3.00505 5.68075 3.07405 5.73939 3.13899C5.80642 3.2161 5.84412 3.33379 5.6598 3.03752C5.68493 3.07405 5.71426 3.11058 5.73939 3.1471C5.84831 3.30538 5.93628 3.46772 6.01169 3.64224L5.88602 3.35003C5.98656 3.58948 6.05358 3.83299 6.09129 4.08867C6.07453 3.97909 6.06196 3.87358 6.04521 3.76399C6.06196 3.89387 6.07034 4.02371 6.07034 4.15764C6.07453 4.79482 6.64426 5.40362 7.32707 5.3752C8.00153 5.34679 8.59223 4.83947 8.58381 4.15767C8.57543 3.33376 8.32827 2.48151 7.82557 1.80781C7.27678 1.07322 6.56884 0.549685 5.68906 0.233095C4.10976 -0.339149 2.12408 0.172218 1.05586 1.43845C0.444243 2.16087 0.0965771 2.97257 0.0127745 3.90601C-0.0584417 4.71775 0.171962 5.59027 0.607636 6.28838C1.03074 6.96615 1.6675 7.55867 2.41315 7.89152C3.30541 8.28925 4.23543 8.39883 5.20315 8.22026C7.16783 7.85499 8.56283 6.05711 8.58382 4.16173C8.58801 3.52455 8.00152 2.91578 7.32709 2.9442C6.64006 2.96855 6.07871 3.47586 6.07036 4.15772L6.07034 4.15764Z" fill="black"/>
<path d="M6.08395 35.8544C6.08395 35.9883 6.07557 36.1182 6.05882 36.2481C6.07557 36.1385 6.08814 36.033 6.1049 35.9234C6.06719 36.1791 6.00017 36.4226 5.89963 36.6621C5.94152 36.5647 5.98341 36.4672 6.0253 36.3698C5.95408 36.5362 5.86611 36.6945 5.76557 36.8406C5.76138 36.8488 5.68179 36.9746 5.67341 36.9705C5.66922 36.9705 5.88287 36.7229 5.76976 36.8488C5.70274 36.9218 5.6399 36.9949 5.56868 37.0638C5.50585 37.1247 5.43463 37.1856 5.3676 37.2424C5.28801 37.3074 5.16652 37.3439 5.47233 37.1653C5.43463 37.1897 5.39693 37.2181 5.35922 37.2424C5.19585 37.3479 5.02828 37.4332 4.84814 37.5062L5.14976 37.3845C4.9026 37.4819 4.65125 37.5468 4.38733 37.5833C4.50044 37.5671 4.60936 37.5549 4.72247 37.5387C4.45017 37.5712 4.18206 37.5712 3.9098 37.5387C4.02291 37.5549 4.13182 37.5671 4.24493 37.5833C3.98101 37.5468 3.72966 37.4819 3.4825 37.3845L3.78412 37.5062C3.61237 37.4372 3.44899 37.352 3.29818 37.2546C3.2898 37.2505 3.15993 37.1734 3.16412 37.1653C3.16412 37.1613 3.41966 37.3682 3.2898 37.2587C3.21439 37.1937 3.13898 37.1328 3.06777 37.0638C3.00493 37.003 2.9421 36.934 2.88345 36.869C2.81643 36.7919 2.77872 36.6742 2.96305 36.9705C2.93792 36.934 2.90859 36.8975 2.88345 36.8609C2.77453 36.7026 2.68656 36.5403 2.61115 36.3658L2.73683 36.658C2.63629 36.4185 2.56926 36.175 2.53156 35.9194C2.54831 36.0289 2.56088 36.1344 2.57764 36.244C2.54413 35.9802 2.54413 35.7205 2.57764 35.4567C2.56088 35.5663 2.54831 35.6718 2.53156 35.7814C2.56926 35.5257 2.63629 35.2822 2.73683 35.0428L2.61115 35.335C2.68237 35.1686 2.77034 35.0103 2.87088 34.8642C2.87507 34.8561 2.95467 34.7302 2.96304 34.7343C2.96723 34.7343 2.75358 34.9819 2.86669 34.8561C2.93372 34.783 2.99656 34.7099 3.06777 34.641C3.13061 34.5801 3.20183 34.5192 3.26885 34.4624C3.34845 34.3975 3.46993 34.3609 3.16412 34.5395C3.20182 34.5151 3.23953 34.4867 3.27723 34.4624C3.44061 34.3569 3.60818 34.2716 3.78831 34.1986C3.68777 34.2392 3.58723 34.2798 3.48669 34.3203C3.73386 34.2229 3.9852 34.158 4.24912 34.1215C4.13601 34.1377 4.0271 34.1499 3.91399 34.1661C4.18629 34.1336 4.45439 34.1336 4.72666 34.1661C4.61355 34.1499 4.50463 34.1377 4.39152 34.1215C4.65544 34.158 4.9068 34.2229 5.15395 34.3203C5.05341 34.2798 4.95287 34.2392 4.85233 34.1986C5.02409 34.2676 5.18747 34.3528 5.33828 34.4502C5.34666 34.4543 5.47652 34.5314 5.47233 34.5395C5.47233 34.5436 5.2168 34.3366 5.34666 34.4461C5.42206 34.5111 5.49747 34.572 5.56868 34.641C5.63152 34.7018 5.69436 34.7708 5.753 34.8358C5.82003 34.9129 5.85773 35.0306 5.67341 34.7343C5.69854 34.7708 5.72787 34.8074 5.753 34.8439C5.86192 35.0022 5.94989 35.1645 6.0253 35.339C5.98341 35.2416 5.94151 35.1442 5.89963 35.0468C6.00017 35.2863 6.06719 35.5298 6.1049 35.7855C6.08814 35.6759 6.07557 35.5704 6.05882 35.4608C6.07557 35.5906 6.08395 35.7245 6.08395 35.8544C6.08814 36.4916 6.65787 37.1004 7.34068 37.072C8.01514 37.0436 8.60584 36.5363 8.59742 35.8544C8.58904 35.0305 8.34188 34.1783 7.83918 33.5046C7.2904 32.77 6.58245 32.2465 5.70267 31.9299C4.12337 31.3576 2.13769 31.869 1.06948 33.1352C0.457854 33.8576 0.110188 34.6693 0.0263853 35.6028C-0.0448309 36.4145 0.185573 37.287 0.621247 37.9852C1.04435 38.6629 1.68111 39.2555 2.42676 39.5883C3.31902 39.986 4.24904 40.0956 5.21676 39.917C7.18144 39.5518 8.57644 37.7539 8.59743 35.8585C8.60162 35.2213 8.01514 34.6126 7.3407 34.641C6.65786 34.6653 6.09232 35.1726 6.08397 35.8545L6.08395 35.8544Z" fill="black"/>
</svg>
