<svg width="47" height="40" viewBox="0 0 47 40" fill="none" xmlns="http://www.w3.org/2000/svg">
<path fill-rule="evenodd" clip-rule="evenodd" d="M23.4989 0C13.8511 0 5.49926 6.55868 3.44717 15.7439C3.36226 16.129 3.61437 16.5084 4.01108 16.5913C4.20156 16.6314 4.40056 16.5964 4.56449 16.4935C4.72842 16.3909 4.84349 16.2288 4.88448 16.0437C6.7922 7.50466 14.5364 1.42762 23.4993 1.42762C31.67 1.42762 38.9197 6.49835 41.5409 14.0286C40.3088 14.6345 39.4584 15.879 39.4584 17.3078C39.4584 19.3271 41.1566 20.9855 43.232 20.9855C45.3076 20.9855 47 19.3271 47 17.3078C47 15.2885 45.3076 13.6371 43.232 13.6371C43.1392 13.6371 43.0464 13.6403 42.9553 13.6466C40.1567 5.50322 32.323 0.000195051 23.4986 0.000195051L23.4989 0ZM23.4989 7.43786C20.1236 7.43786 17.051 8.70791 14.7525 10.7827C14.7289 10.8002 14.7063 10.8193 14.685 10.8397C14.6817 10.8445 14.6784 10.8489 14.6752 10.8537C12.1763 13.1463 10.6147 16.3981 10.6147 20.0003C10.6147 23.606 12.1792 26.859 14.6824 29.1509L14.682 29.1512C14.683 29.1525 14.684 29.1541 14.685 29.1554C14.6899 29.1595 14.6945 29.1637 14.6994 29.1678C17.0035 31.2696 20.0978 32.5571 23.4986 32.5571C26.8791 32.5571 29.9583 31.2846 32.2592 29.2053H32.2589C32.2799 29.1897 32.3002 29.1731 32.3192 29.1553C32.3261 29.148 32.3327 29.1403 32.3392 29.133C34.8319 26.8423 36.3899 23.5965 36.3899 20.0003C36.3899 16.4121 34.8385 13.1715 32.355 10.8807C32.3435 10.8666 32.3317 10.8533 32.3193 10.8402C32.2891 10.8099 32.2567 10.7825 32.2216 10.758C29.925 8.69792 26.8602 7.43839 23.4987 7.43839L23.4989 7.43786ZM22.8763 8.95834V13.7733C21.7269 13.7118 20.6016 13.4799 19.5358 13.0947C19.6899 12.6816 19.8567 12.2923 20.0351 11.931C20.858 10.2615 21.8717 9.25526 22.8763 8.95834ZM24.345 9.03511C25.2771 9.40655 26.2059 10.3845 26.9685 11.9311C27.1462 12.2917 27.3124 12.6806 27.4662 13.0932C26.4682 13.4544 25.4181 13.6815 24.345 13.7593L24.345 9.03511ZM19.8885 9.43203C19.4479 9.97803 19.0519 10.6135 18.7066 11.3137C18.5211 11.6905 18.3486 12.09 18.189 12.508C17.5365 12.1732 16.9142 11.7791 16.3343 11.3233C17.3821 10.5005 18.583 9.85503 19.8885 9.43203ZM27.1101 9.43203C28.416 9.85507 29.6168 10.5005 30.6647 11.3232C30.0851 11.7788 29.4638 12.1747 28.8114 12.5092C28.6514 12.0909 28.4783 11.6912 28.2924 11.3137C27.9472 10.6135 27.5511 9.978 27.1105 9.43203H27.1101ZM15.2416 12.3016C16.0094 12.9263 16.8461 13.4563 17.7299 13.8876C17.2683 15.5033 16.989 17.3334 16.9339 19.2836H12.1004C12.2758 16.5788 13.4384 14.1393 15.2416 12.3016ZM31.7582 12.3016C33.561 14.139 34.7222 16.5784 34.898 19.2836H30.0658C30.0107 17.3334 29.7314 15.5034 29.2698 13.8876C30.1536 13.4566 30.9904 12.9263 31.7582 12.3016ZM27.9043 14.4604C28.2944 15.8959 28.5423 17.5354 28.5957 19.2837H24.3454V15.1893C25.5679 15.111 26.7656 14.8634 27.9039 14.4605L27.9043 14.4604ZM19.0992 14.4617C20.305 14.8886 21.578 15.1405 22.8767 15.2017V19.2836H18.4045C18.4586 17.536 18.7074 15.8968 19.0989 14.4617L19.0992 14.4617ZM43.2332 15.0638C44.5125 15.0638 45.5311 16.057 45.5311 17.3077C45.5311 18.5583 44.5125 19.557 43.2332 19.557C41.954 19.557 40.9298 18.5583 40.9298 17.3077C40.9298 16.057 41.954 15.0638 43.2332 15.0638ZM3.77357 19.0147C1.69799 19.0147 0 20.6661 0 22.6854C0 24.7048 1.69824 26.3618 3.77357 26.3618C3.86504 26.3618 3.95488 26.3599 4.04471 26.3536C6.84553 34.4958 14.6786 40 23.4997 40C33.1474 40 41.5009 33.4413 43.553 24.2561C43.596 24.0701 43.5606 23.8751 43.4547 23.7146C43.3488 23.554 43.1812 23.4416 42.9895 23.4018C42.7986 23.3616 42.5996 23.397 42.4357 23.4996C42.2718 23.6024 42.1567 23.7643 42.1157 23.9494C40.208 32.4884 32.4629 38.5711 23.5001 38.5711C15.331 38.5711 8.08215 33.5004 5.45934 25.9701C6.6921 25.3633 7.54181 24.1155 7.54181 22.6853C7.54181 20.6659 5.84944 19.0146 3.77377 19.0146L3.77357 19.0147ZM3.77357 20.4419C5.05283 20.4419 6.07149 21.4351 6.07149 22.6858C6.07149 23.9364 5.05283 24.9351 3.77357 24.9351C2.49431 24.9351 1.46877 23.9364 1.46877 22.6858C1.46877 21.4351 2.49465 20.4419 3.77357 20.4419ZM12.101 20.7107H16.9349C16.9896 22.6625 17.269 24.4942 17.7309 26.1112C16.8474 26.5422 16.0113 27.0732 15.2438 27.6969C13.439 25.8595 12.2758 23.4184 12.1014 20.7107H12.101ZM18.4049 20.7107H22.8771V24.7984C21.5785 24.8595 20.3054 25.1102 19.0993 25.5368C18.7078 24.1008 18.4587 22.4599 18.4049 20.7107ZM24.3459 20.7107H28.5958C28.5427 22.4612 28.2949 24.103 27.9044 25.5397C26.7661 25.1367 25.5685 24.8876 24.3459 24.8095L24.3459 20.7107ZM30.0659 20.7107H34.8994C34.725 23.4184 33.5617 25.8592 31.757 27.6969C30.9895 27.0732 30.1535 26.5431 29.2699 26.1124C29.7318 24.4951 30.0111 22.6628 30.0659 20.7107ZM22.8771 26.2268V31.0363C21.8726 30.7404 20.8588 29.7385 20.0359 28.0693C19.8572 27.7068 19.6897 27.3159 19.5353 26.9012C20.6015 26.5167 21.7274 26.2879 22.8771 26.2268ZM24.3459 26.2408C25.4193 26.3185 26.4701 26.5437 27.4683 26.904C27.3142 27.3175 27.1474 27.7074 26.9693 28.069C26.2071 29.6155 25.2783 30.5893 24.3459 30.9591L24.3459 26.2408ZM18.1869 27.4879C18.3472 27.9075 18.5209 28.3066 18.7075 28.6851C19.0514 29.383 19.4458 30.0182 19.8851 30.5623C18.5813 30.1399 17.382 29.4942 16.3351 28.6727C16.9144 28.2178 17.5351 27.8221 18.1868 27.488L18.1869 27.4879ZM28.8124 27.4879C29.4648 27.8221 30.0858 28.2171 30.6654 28.6726C29.6185 29.4941 28.4196 30.1398 27.1154 30.5623C27.5544 30.0182 27.9488 29.383 28.293 28.685C28.4796 28.3069 28.652 27.9071 28.8123 27.4879L28.8124 27.4879Z" fill="black"/>
</svg>
