<svg width="49" height="40" viewBox="0 0 49 40" fill="none" xmlns="http://www.w3.org/2000/svg">
<path d="M47.9788 0H1.02089C0.457276 0 0 0.44826 0 1.00008V39.0003C0 39.5527 0.456892 40 1.02089 40H47.9788C48.5434 40 48.9997 39.5528 48.9997 39.0003L49 1.00008C48.9997 0.447612 48.5431 0 47.9785 0H47.9788ZM46.9582 1.99972V8.00002H2.04231V1.99972H46.9582ZM2.04231 38.0005V10.0002H46.9591V38.0013L2.04231 38.001V38.0005ZM36.7502 31.0002C36.7502 31.5533 36.2937 32.0002 35.7293 32.0002H25.5213C24.9574 32.0002 24.5005 31.553 24.5005 31.0002C24.5005 30.4477 24.9573 30.0004 25.5213 30.0004H35.7293C36.2937 30.0004 36.7502 30.4477 36.7502 31.0002ZM4.38427 5.70694C4.19035 5.52654 4.08886 5.26722 4.08886 4.99731C4.08886 4.7373 4.19035 4.4773 4.38427 4.2969C4.76234 3.92722 5.45677 3.91732 5.82364 4.2969C6.01756 4.4773 6.13021 4.73662 6.13021 4.99731C6.13021 5.26721 6.01756 5.51731 5.82364 5.70694C5.64019 5.8969 5.37478 5.99701 5.10901 5.99701C4.83348 5.99667 4.56807 5.89622 4.38427 5.70694ZM8.46765 5.70694C8.27373 5.51697 8.17224 5.25697 8.17224 4.99731C8.17224 4.7373 8.27408 4.4773 8.46765 4.2969C8.84502 3.91732 9.53979 3.92722 9.90702 4.2969C10.1009 4.4773 10.2136 4.73662 10.2136 4.99731C10.2136 5.26721 10.1006 5.51731 9.90702 5.70694C9.72357 5.8969 9.45815 5.99701 9.18262 5.99701C8.9172 5.99667 8.66157 5.89622 8.46765 5.70694ZM12.5507 5.70694C12.3568 5.51697 12.2448 5.26722 12.2448 4.99731C12.2448 4.7373 12.3568 4.4773 12.5507 4.2969C12.9287 3.91732 13.6232 3.91732 13.99 4.2969C14.184 4.4773 14.2861 4.73662 14.2861 4.99731C14.2861 5.26721 14.1843 5.52722 13.99 5.70694C13.8066 5.8969 13.5412 5.99701 13.2656 5.99701C13.0006 5.99667 12.7345 5.89622 12.5507 5.70694ZM20.2422 23.3496C20.5697 23.7237 20.5697 24.2762 20.2422 24.6499L14.117 31.6502C13.9151 31.8808 13.6291 32.0001 13.3413 32.0001C13.1063 32.0001 12.8698 31.9211 12.6773 31.7602C12.2493 31.4008 12.1998 30.7687 12.5664 30.3502L18.1226 24L12.5664 17.6506C12.1998 17.2314 12.249 16.5992 12.6773 16.2405C13.1049 15.8804 13.7498 15.9296 14.1166 16.3489L20.2422 23.3496Z" fill="black"/>
</svg>
