<svg width="28" height="40" viewBox="0 0 28 40" fill="none" xmlns="http://www.w3.org/2000/svg">
<path d="M14.0001 14.1875H0.645394C0.258282 14.1875 0.000306018 13.9375 0.000306018 13.5625L0 0.625222C0 0.250209 0.257976 0.000296453 0.645088 0.000296453L13.9998 0C14.3869 0 14.6449 0.249912 14.6449 0.624925V13.5622C14.6449 13.875 14.3869 14.1875 13.9998 14.1875L14.0001 14.1875ZM1.29092 12.9376H13.3554V1.25022H1.29092V12.9376Z" fill="black"/>
<path d="M27.3549 39.9997H14.0002C13.6131 39.9997 13.3551 39.7498 13.3551 39.3747V26.4374C13.3551 26.0624 13.6131 25.8125 14.0002 25.8125H27.3549C27.742 25.8125 28 26.0624 28 26.4374L28.0003 39.3747C28.0003 39.7498 27.6778 40 27.3549 40L27.3549 39.9997ZM14.6457 38.7495H26.7102V27.0621H14.6457V38.7495Z" fill="black"/>
<path d="M14.0001 27.0628H0.645394C0.258282 27.0628 0.000306018 26.8129 0.000306018 26.4379L0 13.5628C0 13.1878 0.257976 12.9379 0.645088 12.9379H13.9998C14.3869 12.9379 14.6449 13.1878 14.6449 13.5628V26.5001C14.6449 26.8129 14.3869 27.0628 13.9998 27.0628L14.0001 27.0628ZM1.29092 25.813H13.3554V14.1878H1.29092V25.813Z" fill="black"/>
<path d="M27.3549 27.0629H14.0002C13.6131 27.0629 13.3551 26.813 13.3551 26.438V13.5629C13.3551 13.1879 13.6131 12.938 14.0002 12.938H27.3549C27.742 12.938 28 13.1879 28 13.5629V26.5002C28.0003 26.813 27.6778 27.0629 27.3549 27.0629ZM14.6457 25.8131H26.7102V14.1879H14.6457V25.8131Z" fill="black"/>
</svg>
