<svg width="166" height="94" viewBox="0 0 166 94" fill="none" xmlns="http://www.w3.org/2000/svg">
<path d="M3.4791 92.1809C5.98597 83.3756 9.3665 74.8428 13.5703 66.7098C22.0065 50.3292 33.6133 35.7881 47.7165 23.931C51.1318 21.0648 54.8276 18.3669 59.0929 16.9219C62.9536 15.6129 67.3855 15.4905 70.5305 18.4672C73.4885 21.2654 74.313 25.6208 74.3946 29.5291C74.4983 34.4591 73.6296 39.4044 72.0656 44.0658C71.2594 46.4711 70.2488 48.8029 69.0447 51.0358C68.7183 51.6393 68.4718 52.2258 67.8547 52.1544C67.664 52.1347 67.4836 52.058 67.3371 51.9343C67.1907 51.8105 67.0849 51.6455 67.0336 51.4608C66.8976 50.8114 67.6796 49.6503 68.0111 49.0145C68.6194 47.8577 69.2943 46.7372 70.0324 45.6587C71.3841 43.7094 72.8725 41.8585 74.4864 40.1201C80.6923 33.3387 88.2041 27.8808 96.5711 24.0738C100.685 22.1842 104.989 20.7395 109.41 19.7643C113.396 18.8973 118.683 18.3584 122.025 21.2739C123.435 22.5047 124.247 24.3866 124.332 26.243C124.364 26.923 124.13 27.8036 124.128 28.3391C124.128 28.2541 124.368 28.351 124.186 28.3C124.274 28.3255 124.089 28.2847 124.103 28.2626C124.116 28.2405 124.208 28.3408 124.194 28.3697C124.147 28.4666 124.281 28.0858 124.291 28.0501C125.425 23.8409 127.861 20.0839 130.887 16.9899C137.769 9.97227 147.355 6.92757 156.727 4.87737C159.175 4.34187 161.637 3.86586 164.097 3.39156C165.707 3.08216 165.025 0.623966 163.417 0.933366C152.822 2.97337 141.606 5.15447 132.846 11.8814C128.968 14.853 125.594 18.61 123.46 23.03C122.946 24.0897 122.505 25.1831 122.139 26.3025C121.799 27.3361 121.361 28.5125 121.935 29.5325C122.996 31.4399 125.833 31.1305 126.525 29.1024C127.246 26.9995 126.865 24.5209 126.003 22.5285C125.058 20.3542 123.333 18.7409 121.177 17.7838C116.478 15.6945 111.123 16.5938 106.331 17.8688C96.5858 20.4887 87.5163 25.1687 79.7343 31.5929C75.7719 34.8316 72.2004 38.5211 69.0923 42.5868C67.3768 44.8012 65.9429 47.2201 64.8236 49.788C64.0161 51.692 64.8151 53.8238 66.8415 54.5021C67.2789 54.6512 67.7421 54.71 68.2029 54.675C68.6637 54.6399 69.1126 54.5117 69.5224 54.2981C70.5628 53.7405 71.0524 52.6678 71.5743 51.6665C72.8665 49.1773 73.9404 46.5807 74.7839 43.906C76.37 38.8672 77.2438 33.3796 76.8732 28.096C76.5536 23.557 75.1596 18.7715 71.4111 15.8815C67.5011 12.8623 62.4011 12.9915 57.9284 14.6201C53.1242 16.3677 49.0646 19.426 45.2073 22.707C41.4011 25.9481 37.7736 29.3934 34.3409 33.0277C20.4069 47.7794 9.78972 65.3412 3.202 84.5343C2.40867 86.8361 1.68164 89.1594 1.0209 91.5043C0.570404 93.0853 3.0303 93.7602 3.4791 92.1843V92.1809Z" fill="black"/>
</svg>
