<svg width="160" height="160" viewBox="0 0 160 160" fill="none" xmlns="http://www.w3.org/2000/svg">
<path d="M46.4 21.6368C44.4396 28.7136 42.9189 35.9049 41.8464 43.1696C38.6031 65.0973 39.3588 87.4312 44.0768 109.09C45.6465 116.298 47.6632 123.401 50.1152 130.358C50.416 131.212 50.7227 132.059 51.0352 132.901C51.2592 133.509 51.848 133.922 52.5104 133.739C53.096 133.579 53.5744 132.874 53.3488 132.262C48.3066 118.604 44.9521 104.381 43.36 89.9088C41.7672 75.395 41.9219 60.7425 43.8208 46.2656C44.7751 39.0585 46.1768 31.9178 48.0176 24.8848C48.2448 24.0133 48.4789 23.1434 48.72 22.2752C49.1344 20.784 46.8192 20.1488 46.4064 21.6352L46.4 21.6368Z" fill="black"/>
<path d="M79.2704 8.98399C77.0746 17.2035 75.3813 25.5491 74.2 33.9744C70.6398 59.3323 71.6237 85.1215 77.1056 110.134C78.9272 118.445 81.2536 126.637 84.072 134.664C84.4187 135.649 84.7728 136.63 85.1344 137.61C85.3568 138.218 85.9472 138.63 86.6096 138.448C87.1952 138.288 87.6736 137.584 87.448 136.973C81.6335 121.162 77.7389 104.709 75.848 87.9696C73.9533 71.1635 74.0532 54.1922 76.1456 37.4096C77.1919 29.0703 78.7463 20.8027 80.8 12.6528C81.056 11.6405 81.3184 10.6304 81.5872 9.62239C81.9872 8.12799 79.6672 7.49119 79.2736 8.98239L79.2704 8.98399Z" fill="black"/>
<path d="M121.082 13.2448C119.551 20.4405 118.354 27.6939 117.49 35.0048C116.631 42.2389 116.103 49.5003 115.907 56.7888C115.709 64.1061 115.844 71.4208 116.314 78.7328C116.783 86.0448 117.583 93.3189 118.714 100.555C119.838 107.785 121.295 114.954 123.085 122.061C123.308 122.94 123.534 123.817 123.765 124.693C124.158 126.184 126.474 125.552 126.078 124.053C124.229 117.045 122.701 109.962 121.496 102.805C120.301 95.6976 119.435 88.5435 118.896 81.3424C118.352 74.1157 118.133 66.8731 118.24 59.6144C118.347 52.3557 118.787 45.1243 119.562 37.92C120.324 30.7509 121.418 23.6267 122.843 16.5472C123.022 15.6587 123.206 14.7717 123.395 13.8864C123.473 13.5796 123.43 13.2545 123.275 12.9787C123.119 12.703 122.863 12.498 122.56 12.4064C121.963 12.2464 121.219 12.608 121.085 13.2448H121.082Z" fill="black"/>
<path d="M17.4608 71.2577C23.9861 66.2744 30.8746 61.7856 38.0688 57.8289C45.2273 53.8897 52.6642 50.479 60.32 47.6241C68.0153 44.7561 75.9065 42.444 83.9328 40.7057C91.9191 38.9747 100.021 37.8298 108.174 37.2801C116.332 36.7261 124.519 36.7796 132.669 37.4401C133.693 37.5233 134.715 37.6161 135.736 37.7185C136.376 37.7841 136.936 37.1217 136.936 36.5185C136.936 35.8161 136.382 35.3841 135.736 35.3185C127.5 34.4974 119.215 34.2963 110.949 34.7169C86.051 35.9975 61.7272 42.6627 39.6544 54.2529C32.3592 58.0853 25.3614 62.4592 18.72 67.3377C17.8944 67.9457 17.0736 68.5617 16.2576 69.1857C15.744 69.5777 15.4704 70.2177 15.8272 70.8273C16.1232 71.3329 16.9472 71.6529 17.4688 71.2577H17.4608Z" fill="black"/>
<path d="M20.376 108.75C33.7503 99.8574 48.1707 92.6482 63.3104 87.2864C70.8899 84.5984 78.6245 82.3693 86.472 80.6112C102.105 77.0972 118.111 75.5206 134.13 75.9168C135.147 75.9424 136.164 75.976 137.181 76.0176C138.726 76.0816 138.723 73.6816 137.181 73.6176C129.079 73.29 120.965 73.4669 112.885 74.1472C88.5758 76.1967 64.8435 82.6568 42.8496 93.2112C35.569 96.7017 28.5122 100.641 21.72 105.006C20.8667 105.557 20.0133 106.114 19.16 106.678C18.8914 106.845 18.6973 107.108 18.618 107.414C18.5387 107.72 18.5804 108.044 18.7344 108.32C19.0544 108.856 19.8336 109.12 20.376 108.75Z" fill="black"/>
<path d="M36.656 144.291C43.4016 140.944 50.2581 137.833 57.2256 134.957C64.2219 132.077 71.3152 129.442 78.5056 127.053C85.696 124.663 92.9499 122.526 100.267 120.64C107.595 118.757 114.982 117.13 122.429 115.757C126.12 115.078 129.826 114.406 133.549 113.934C137.272 113.462 141.149 113.195 144.88 113.864C145.793 114.028 146.695 114.244 147.582 114.514C149.064 114.96 149.698 112.645 148.222 112.198C140.744 109.944 132.749 111.53 125.246 112.827C117.689 114.133 110.185 115.706 102.733 117.546C95.3195 119.376 87.9765 121.463 80.704 123.808C73.408 126.16 66.1973 128.768 59.072 131.632C51.9467 134.496 44.9349 137.601 38.0368 140.946C37.1717 141.367 36.3072 141.794 35.4432 142.226C34.864 142.514 34.7024 143.336 35.0128 143.869C35.36 144.459 36.072 144.587 36.656 144.299V144.291Z" fill="black"/>
<path d="M56.8128 151.546L58.3136 150.037C58.535 149.809 58.6609 149.506 58.6656 149.189C58.6515 148.873 58.5269 148.572 58.3136 148.339C58.0881 148.115 57.7834 147.989 57.4656 147.989C57.1484 147.993 56.8449 148.118 56.6176 148.339L55.1168 149.85C54.8948 150.077 54.7688 150.38 54.7648 150.698C54.7578 150.858 54.7937 151.018 54.8688 151.16C54.9166 151.308 55.0021 151.441 55.1168 151.546C55.3421 151.77 55.6468 151.896 55.9648 151.898C56.282 151.893 56.5853 151.767 56.8128 151.546Z" fill="black"/>
<path d="M156 39.7345C156.627 39.7345 157.229 39.1825 157.2 38.5345C157.195 38.2179 157.067 37.9158 156.843 37.6919C156.619 37.468 156.317 37.3398 156 37.3345C155.373 37.3345 154.771 37.8865 154.8 38.5345C154.805 38.8511 154.934 39.1532 155.157 39.3771C155.381 39.601 155.683 39.7291 156 39.7345Z" fill="black"/>
<path d="M145.466 38.9825C146.093 38.9825 146.694 38.4305 146.666 37.7825C146.66 37.4659 146.532 37.1638 146.308 36.9399C146.084 36.716 145.782 36.5879 145.466 36.5825C144.838 36.5825 144.237 37.1345 144.266 37.7825C144.271 38.0991 144.399 38.4012 144.623 38.6251C144.847 38.849 145.149 38.9772 145.466 38.9825Z" fill="black"/>
<path d="M147.275 69.3856V75.4064C147.275 76.0336 147.827 76.6352 148.475 76.6064C148.792 76.601 149.094 76.4729 149.318 76.249C149.542 76.0251 149.67 75.723 149.675 75.4064V69.3856C149.675 68.7584 149.123 68.1568 148.475 68.1856C148.159 68.1913 147.857 68.3196 147.633 68.5434C147.409 68.7672 147.281 69.0691 147.275 69.3856Z" fill="black"/>
<path d="M4.84798 56.6897L5.60158 55.9377C5.71579 55.8324 5.80116 55.6997 5.84958 55.5521C5.91698 55.4072 5.9519 55.2494 5.9519 55.0897C5.9519 54.9299 5.91698 54.7721 5.84958 54.6273C5.80069 54.4791 5.71478 54.3458 5.59998 54.2401L5.35678 54.0529C5.17268 53.9461 4.96321 53.8908 4.75038 53.8929L4.43038 53.9345C4.23171 53.9897 4.05049 54.095 3.90398 54.2401L3.15198 54.9937C3.03727 55.0985 2.95181 55.2314 2.90398 55.3793C2.83551 55.5238 2.79999 55.6817 2.79999 55.8417C2.79999 56.0016 2.83551 56.1595 2.90398 56.3041C2.95181 56.4519 3.03727 56.5848 3.15198 56.6897L3.39358 56.8785C3.57805 56.9844 3.78727 57.0396 3.99998 57.0385L4.31998 56.9953C4.52057 56.9406 4.70322 56.8341 4.84958 56.6865L4.84798 56.6897Z" fill="black"/>
</svg>
