<svg width="170" height="156" viewBox="0 0 170 156" fill="none" xmlns="http://www.w3.org/2000/svg">
<path d="M2.06704 20.7401C12.3073 14.5609 23.4127 9.94515 35.016 7.04555C40.7981 5.59549 46.6815 4.58471 52.616 4.02187C58.6 3.46043 64.7125 3.26155 70.6894 4.08347C81.1069 5.51787 91.5472 10.6095 96.3485 20.4374C101.528 31.0396 96.1408 42.7225 89.6851 51.4134C83.4512 59.8086 75.1158 66.6057 65.7914 71.3014C63.4788 72.4656 61.1005 73.4946 58.6686 74.3831C57.4589 74.8243 56.2387 75.2315 55.0078 75.6046C53.7917 75.9724 52.5245 76.4107 51.2643 76.6025C47.8323 77.1199 44.7717 73.952 45.2856 70.5376C45.6218 68.2988 47.5877 66.7711 49.0872 65.2576C51.0819 63.2465 53.1258 61.2917 55.219 59.3932C59.3962 55.6056 63.7788 52.0509 68.3469 48.7452C77.5216 42.1054 87.3853 36.4737 97.767 31.9478C108.945 27.0796 121.099 22.9331 133.433 23.1742C143.687 23.3748 154.254 27.1465 160.995 35.1527C164.284 39.0599 166.335 43.944 167.014 48.9952C167.718 54.2083 167.014 59.5252 165.606 64.5588C162.581 75.3089 156.423 84.8235 149.708 93.6182C142.93 102.472 135.366 110.695 127.108 118.188C118.853 125.693 109.944 132.447 100.488 138.368C98.1226 139.85 95.7254 141.278 93.2966 142.654C91.123 143.886 88.9477 145.316 86.4555 145.776C82.7349 146.462 78.8752 144.688 76.6576 141.691C74.2904 138.493 73.9067 134.262 75.8515 130.761C77.2296 128.28 79.2413 126.046 81.1597 123.971C83.0957 121.868 85.1742 119.87 87.2915 117.938C95.5314 110.436 104.782 104.127 114.774 99.1939C119.75 96.7302 124.895 94.6234 130.17 92.8895C135.461 91.1507 141.023 89.4523 146.616 89.1672C151.72 88.9084 156.766 90.1721 160.344 94.0036C163.327 97.2051 164.79 101.529 165.485 105.775C166.252 110.474 166.013 115.303 165.33 119.994C164.468 125.942 163.011 131.788 160.981 137.446C159.015 142.898 156.519 148.145 153.529 153.11C152.649 154.571 154.937 155.899 155.808 154.442C162.328 143.565 166.523 131.455 168.128 118.876C169.297 109.724 168.704 98.4758 161.703 91.5959C152.978 83.0353 139.359 87.0587 129.224 90.4167C112.466 95.9715 97.1147 105.099 84.2309 117.169C82.0114 119.217 79.9012 121.38 77.909 123.649C76.0469 125.809 74.0546 128.107 72.9387 130.759C71.2016 134.892 71.8722 139.667 74.5632 143.234C77.2032 146.723 81.4765 148.907 85.8941 148.479C88.5094 148.227 90.6989 147.105 92.9658 145.851C95.5283 144.436 98.0568 142.961 100.551 141.425C105.54 138.356 110.379 135.059 115.068 131.536C124.459 124.492 133.179 116.596 141.118 107.948C145.058 103.649 148.79 99.171 152.315 94.514C155.835 89.8659 159.179 85.0734 161.986 79.9518C167.38 70.1046 171.398 58.5555 169.388 47.2158C168.422 41.7935 165.967 36.7467 162.297 32.6395C158.712 28.6302 154.099 25.6716 149.145 23.6459C137.529 18.8939 124.549 20.1945 112.769 23.6459C101.134 27.0479 89.8998 32.1889 79.4666 38.3313C69.2101 44.3672 59.6624 51.5335 51.0021 59.6959C48.8795 61.6988 46.7781 63.7439 44.7963 65.8929C43.3003 67.5227 42.4203 69.6646 42.628 71.8998C43.0293 76.2241 46.8731 79.7564 51.303 79.239C53.9043 78.9327 56.5461 77.9384 59.0013 77.0566C61.6133 76.1208 64.1694 75.036 66.6573 73.8076C71.6074 71.3533 76.2571 68.3348 80.5138 64.8123C84.7364 61.3228 88.5273 57.3417 91.8059 52.9534C95.4227 48.124 98.5362 42.719 100.092 36.8511C101.611 31.1276 101.377 25.1823 98.9304 19.758C96.7586 14.9409 93.0274 10.9211 88.7224 7.92027C78.525 0.815147 65.3144 0.266027 53.3464 1.31499C34.732 2.95035 16.7368 8.81472 0.732961 18.4609C-0.719039 19.3409 0.606242 21.6289 2.06704 20.7401Z" fill="black"/>
</svg>
