<svg width="83" height="83" viewBox="0 0 83 83" fill="none" xmlns="http://www.w3.org/2000/svg">
<path d="M6.47219 35.4301C15.0919 41.4041 23.1827 48.1074 30.6552 55.466C32.7515 57.5321 34.7973 59.6481 36.7927 61.8139L36.7492 60.9065C35.0561 63.0248 33.5142 65.2595 32.1348 67.5941C31.4386 68.7829 30.783 69.9923 30.1659 71.2233C29.6421 72.2709 29.0423 73.3548 28.7455 74.4942C28.464 75.5725 28.5078 76.6754 29.1444 77.6205C29.7475 78.5206 30.7852 79.034 31.8037 79.3108C32.9664 79.6248 34.1627 79.6853 35.3578 79.7669L39.4931 80.0485C45.0061 80.4228 50.5195 80.7981 56.0334 81.1746C61.4977 81.5461 66.9632 81.9864 72.4335 82.2856C74.6064 82.4048 76.8925 82.3312 78.7671 81.0947C80.7203 79.8091 81.6037 77.5573 81.9041 75.3221C82.2227 72.9173 81.9251 70.4821 81.6558 68.0942C81.3729 65.5582 81.0504 63.0269 80.6882 60.5003C79.234 50.3333 77.1494 40.2666 74.4464 30.3582C74.1193 29.1624 73.8049 27.9571 73.4286 26.7748C73.0767 25.6663 72.6444 24.562 71.903 23.6493C70.6487 22.1059 68.6584 21.5395 66.7592 22.06C64.9126 22.5657 63.3302 23.7604 62.0785 25.18C60.6263 26.8259 59.6266 28.8339 58.1034 30.4188C57.3439 31.2109 56.49 31.858 55.4657 32.2604L56.3591 32.456L42.922 18.4163L29.4847 4.37877C27.6947 2.50957 25.6062 0.285738 22.7871 0.428537C20.2522 0.556839 18.3473 2.47275 16.7112 4.21668C12.3332 8.87103 8.34509 13.8773 4.78722 19.1851C3.35287 21.3274 1.72306 23.5211 1.00404 26.0315C0.493272 27.8138 0.26102 30.1918 1.71835 31.6199C2.09037 31.9799 2.53033 32.2622 3.01258 32.4504C3.90689 32.8142 4.39744 31.3966 3.50231 31.0323C1.89734 30.3801 1.96207 28.3675 2.313 26.9377C2.87888 24.6023 4.30497 22.629 5.61261 20.6568C8.91762 15.6393 12.6139 10.8908 16.6668 6.45559C17.5652 5.47384 18.4593 4.46844 19.4627 3.59165C20.245 2.90752 21.1403 2.25857 22.1711 2.01959C24.679 1.43822 26.6448 3.57763 28.2065 5.20861L40.8609 18.431L55.211 33.4251C55.3206 33.5472 55.4658 33.6318 55.6261 33.6669C55.7864 33.702 55.9537 33.6858 56.1044 33.6207C58.1472 32.8154 59.5988 31.128 60.8521 29.3902C61.9983 27.8009 63.0049 26.1059 64.5634 24.8754C65.7419 23.9418 67.3545 23.0968 68.9063 23.4345C70.9762 23.887 71.7149 26.1643 72.2297 27.9553C74.9045 37.3273 77.0184 46.8503 78.5601 56.4738C79.3316 61.2519 80.0275 66.0728 80.4468 70.8988C80.6347 73.0523 80.6654 75.3744 79.8505 77.4136C79.0653 79.3762 77.4013 80.4795 75.3453 80.7478C74.3449 80.8791 73.3308 80.8395 72.3259 80.7796C71.0671 80.7041 69.8086 80.6105 68.5508 80.5247L60.6569 79.9874L44.8676 78.9129L36.9736 78.3755C35.7516 78.2924 34.5132 78.2613 33.301 78.0916C32.3853 77.9655 31.3226 77.7372 30.632 77.0754C29.922 76.3943 29.9946 75.4381 30.2857 74.5788C30.6568 73.4832 31.2173 72.4281 31.7399 71.4051C32.9064 69.127 34.2255 66.9303 35.6883 64.8301C36.4191 63.7791 37.1844 62.7544 37.9843 61.7559C38.0767 61.6203 38.1224 61.4583 38.1144 61.2945C38.1063 61.1306 38.0451 60.9739 37.94 60.8479C30.7819 53.0839 22.9744 45.9449 14.6023 39.5086C12.2199 37.6786 9.79286 35.9069 7.32128 34.1936C6.52613 33.6468 5.67457 34.8816 6.47136 35.4296L6.47219 35.4301Z" fill="black"/>
</svg>
