<svg width="78" height="71" viewBox="0 0 78 71" fill="none" xmlns="http://www.w3.org/2000/svg">
<path d="M3.34078 36.3888L19.0488 39.016L26.9032 40.3304C29.5008 40.7648 32.0952 41.2384 34.7 41.6264C35.9536 41.8128 37.2248 41.956 38.4936 41.8536C39.6412 41.7593 40.7636 41.4655 41.8104 40.9856C43.804 40.0824 45.4816 38.5856 47.024 37.0656C50.5112 33.6256 53.816 29.9816 56.9856 26.2456C58.5856 24.3619 60.1448 22.4453 61.6632 20.496C62.4264 19.5184 63.18 18.5336 63.924 17.5416C64.644 16.5816 65.4224 15.632 66.0496 14.6096C66.6096 13.6912 66.828 12.5992 66.2616 11.628C65.7872 10.8128 64.932 10.2744 64.1016 9.8744C61.8904 8.8056 59.568 7.9176 57.2776 7.0336C52.5915 5.22335 47.814 3.65908 42.9648 2.3472C40.5408 1.69226 38.1005 1.10053 35.644 0.571999C33.2848 0.0647985 30.8304 -0.468002 28.6096 0.795998C27.64 1.3464 26.8152 2.12 26.04 2.9136C25.1816 3.7936 24.3432 4.6984 23.5032 5.5976C21.7752 7.44666 20.0685 9.31467 18.3832 11.2016C15.012 14.9749 11.7242 18.8219 8.51998 22.7424C6.91998 24.7019 5.34131 26.6787 3.78398 28.6728C2.33358 30.5296 0.778375 32.4168 0.467975 34.8328C0.142375 37.368 1.07998 39.864 1.84158 42.236L4.27518 49.812C5.89704 54.8632 7.51891 59.9141 9.14078 64.9648C9.48958 66.0512 9.76318 67.236 10.3408 68.232C10.5966 68.6878 10.9529 69.0792 11.3826 69.3767C11.8123 69.6742 12.3041 69.8698 12.8208 69.9488C13.8952 70.1136 14.9696 69.912 16.0208 69.6816C17.2512 69.4149 18.4792 69.1355 19.7048 68.8432C24.6082 67.6864 29.4717 66.3755 34.2952 64.9104C39.1186 63.4453 43.8869 61.8301 48.6 60.0648C53.3098 58.3048 57.9621 56.3955 62.5568 54.3368C64.8024 53.3272 67.0256 52.2656 69.1816 51.0752C71.2144 49.9552 73.3176 48.7552 75.0672 47.212C75.8592 46.5136 76.5744 45.6816 77.0112 44.7128C77.4912 43.644 77.6512 42.4728 77.5776 41.308C77.4296 39.0064 76.6248 36.7432 75.9272 34.5608C74.5584 30.2824 72.9032 26.1048 71.1952 21.952C70.2704 19.7048 69.3328 17.4632 68.4056 15.216C68.2824 14.9168 68.0056 14.704 67.668 14.7976C67.3848 14.8776 67.1248 15.2336 67.2488 15.5352C69.02 19.8296 70.8488 24.1032 72.5016 28.444C73.2664 30.452 73.9912 32.4752 74.6536 34.5192C74.988 35.5523 75.3064 36.5904 75.6088 37.6336C75.9288 38.728 76.2408 39.8424 76.3512 40.98C76.456 42.0496 76.4016 43.1696 75.9512 44.1616C75.5256 45.1 74.8192 45.8616 74.04 46.52C72.3288 47.9672 70.2952 49.1016 68.336 50.1728C64.1064 52.484 59.64 54.376 55.1864 56.2C50.6568 58.0587 46.0733 59.776 41.436 61.352C36.7986 62.928 32.1184 64.3603 27.3952 65.6488C25.0336 66.2931 22.6618 66.9008 20.28 67.472C19.1018 67.7541 17.9213 68.028 16.7384 68.2936C15.6984 68.5272 14.6256 68.8304 13.5472 68.8136C12.568 68.7992 11.7872 68.3976 11.3168 67.5256C10.7792 66.5352 10.524 65.356 10.1808 64.2888L7.84238 57C6.26744 52.0933 4.69117 47.1848 3.11357 42.2744C2.37838 39.9848 1.40158 37.5712 1.63438 35.1216C1.85198 32.828 3.49278 30.9776 4.85278 29.2392C7.88424 25.3667 10.9973 21.5603 14.192 17.82C17.3866 14.0797 20.6602 10.4107 24.0128 6.8128C24.84 5.92426 25.672 5.04027 26.5088 4.1608C27.2328 3.4016 27.972 2.6296 28.8544 2.0528C29.7544 1.458 30.816 1.15543 31.8944 1.1864C33.0992 1.2112 34.288 1.5064 35.4608 1.7584C40.209 2.78469 44.9024 4.04976 49.5232 5.5488C54.1602 7.03983 58.7142 8.77778 63.1656 10.7552C63.9072 11.0872 64.7944 11.4984 65.2224 12.2304C65.7408 13.1168 65.0136 14.0344 64.5024 14.7376C63.0949 16.6779 61.6485 18.5885 60.1632 20.4696C57.1898 24.2365 54.069 27.8835 50.8008 31.4104C49.2056 33.1296 47.5912 34.8392 45.9096 36.4744C44.4296 37.9144 42.7976 39.3424 40.8472 40.1C38.5848 40.98 36.216 40.676 33.8872 40.2872C31.3693 39.868 28.8522 39.4469 26.336 39.024L11.0696 36.4712L3.65998 35.2312C3.33998 35.1776 3.01358 35.3152 2.92158 35.6504C2.84158 35.9376 3.01918 36.3344 3.34078 36.3888Z" fill="black"/>
</svg>
