<svg width="115" height="76" viewBox="0 0 115 76" fill="none" xmlns="http://www.w3.org/2000/svg">
<path d="M1 26.4247V2.27441L22.2615 26.4247H1Z" fill="black" stroke="black" stroke-miterlimit="10"/>
<path d="M32.1836 50.5749H1V32.8647H16.5918L32.1836 50.5749Z" fill="#00EC8A"/>
<path d="M41 75.0795H1V57.0151H25.0964L41 75.0795Z" fill="black" stroke="black" stroke-miterlimit="10"/>
<path d="M39.1521 37.3C39.1521 37.164 39.2121 37.096 39.3321 37.096H45.1521C45.2561 37.096 45.3081 37.156 45.3081 37.276V38.188C45.3081 38.34 45.2361 38.416 45.0921 38.416H41.1321C40.9961 38.416 40.9281 38.472 40.9281 38.584V40.684C40.9281 40.804 40.9841 40.864 41.0961 40.864H43.8321C43.9521 40.864 44.0121 40.924 44.0121 41.044V42.016C44.0121 42.056 44.0001 42.092 43.9761 42.124C43.9521 42.148 43.9081 42.16 43.8441 42.16H41.0841C40.9801 42.16 40.9281 42.208 40.9281 42.304V44.536C40.9281 44.632 40.9721 44.68 41.0601 44.68H45.2601C45.3881 44.68 45.4521 44.736 45.4521 44.848V45.82C45.4521 45.868 45.4361 45.912 45.4041 45.952C45.3721 45.984 45.3201 46 45.2481 46H39.3801C39.2281 46 39.1521 45.928 39.1521 45.784V37.3ZM54.2544 37.096C54.3264 37.096 54.3784 37.12 54.4104 37.168C54.4424 37.216 54.4464 37.272 54.4224 37.336L51.4824 45.772C51.4344 45.924 51.3224 46 51.1464 46H49.8864C49.6944 46 49.5784 45.928 49.5384 45.784L46.6344 37.348C46.6104 37.276 46.6144 37.216 46.6464 37.168C46.6784 37.12 46.7304 37.096 46.8024 37.096H48.2304C48.3504 37.096 48.4264 37.156 48.4584 37.276L50.6064 43.756C50.6624 43.9 50.7144 43.896 50.7624 43.744L52.8864 37.276C52.9184 37.156 52.9984 37.096 53.1264 37.096H54.2544ZM56.05 37.3C56.05 37.164 56.11 37.096 56.23 37.096L62.05 37.096C62.154 37.096 62.206 37.156 62.206 37.276V38.188C62.206 38.34 62.134 38.416 61.99 38.416L58.03 38.416C57.894 38.416 57.826 38.472 57.826 38.584V40.684C57.826 40.804 57.882 40.864 57.994 40.864H60.73C60.85 40.864 60.91 40.924 60.91 41.044V42.016C60.91 42.056 60.898 42.092 60.874 42.124C60.85 42.148 60.806 42.16 60.742 42.16H57.982C57.878 42.16 57.826 42.208 57.826 42.304V44.536C57.826 44.632 57.87 44.68 57.958 44.68H62.158C62.286 44.68 62.35 44.736 62.35 44.848V45.82C62.35 45.868 62.334 45.912 62.302 45.952C62.27 45.984 62.218 46 62.146 46H56.278C56.126 46 56.05 45.928 56.05 45.784V37.3ZM70.9484 45.712C70.9804 45.784 70.9804 45.852 70.9484 45.916C70.9164 45.972 70.8644 46 70.7924 46H69.3284C69.2164 46 69.1364 45.936 69.0884 45.808L67.7084 42.304C67.6684 42.2 67.5604 42.148 67.3844 42.148H65.9444C65.8884 42.148 65.8484 42.164 65.8244 42.196C65.8084 42.22 65.8004 42.248 65.8004 42.28V45.748C65.8004 45.916 65.7084 46 65.5244 46H64.2524C64.1644 46 64.1044 45.984 64.0724 45.952C64.0404 45.912 64.0244 45.856 64.0244 45.784V37.3C64.0244 37.164 64.0844 37.096 64.2044 37.096H67.8164C68.8404 37.096 69.6364 37.304 70.2044 37.72C70.7804 38.128 71.0684 38.72 71.0684 39.496C71.0684 39.92 70.9884 40.292 70.8284 40.612C70.6684 40.924 70.4604 41.184 70.2044 41.392C69.9484 41.592 69.6764 41.744 69.3884 41.848C69.3164 41.864 69.3004 41.916 69.3404 42.004L70.9484 45.712ZM67.5644 40.924C68.1084 40.924 68.5204 40.816 68.8004 40.6C69.0884 40.384 69.2324 40.06 69.2324 39.628C69.2324 39.188 69.0964 38.86 68.8244 38.644C68.5524 38.42 68.1804 38.308 67.7084 38.308H66.0164C65.8724 38.308 65.8004 38.364 65.8004 38.476V40.744C65.8004 40.864 65.8524 40.924 65.9564 40.924H67.5644ZM76.2779 46.12C75.4859 46.12 74.7939 45.936 74.2019 45.568C73.6179 45.192 73.1659 44.664 72.8459 43.984C72.5259 43.304 72.3659 42.504 72.3659 41.584C72.3659 40.632 72.5339 39.812 72.8699 39.124C73.2059 38.436 73.6739 37.908 74.2739 37.54C74.8739 37.164 75.5739 36.976 76.3739 36.976C76.9899 36.976 77.5459 37.096 78.0419 37.336C78.5379 37.576 78.9419 37.884 79.2539 38.26C79.5739 38.636 79.7699 39.04 79.8419 39.472C79.8659 39.576 79.8699 39.644 79.8539 39.676C79.8379 39.708 79.7939 39.732 79.7219 39.748L78.3899 39.952C78.3259 39.952 78.2819 39.94 78.2579 39.916C78.2419 39.892 78.2259 39.848 78.2099 39.784C78.1619 39.504 78.0539 39.248 77.8859 39.016C77.7259 38.784 77.5139 38.6 77.2499 38.464C76.9859 38.32 76.6819 38.248 76.3379 38.248C75.8899 38.248 75.5059 38.364 75.1859 38.596C74.8739 38.828 74.6339 39.184 74.4659 39.664C74.3059 40.144 74.2259 40.76 74.2259 41.512C74.2259 42.304 74.3099 42.944 74.4779 43.432C74.6459 43.92 74.8939 44.28 75.2219 44.512C75.5499 44.736 75.9379 44.848 76.3859 44.848C76.6899 44.848 76.9539 44.8 77.1779 44.704C77.4099 44.608 77.6059 44.484 77.7659 44.332C77.9259 44.172 78.0499 43.996 78.1379 43.804C78.2339 43.604 78.2979 43.404 78.3299 43.204L78.3419 42.724C78.3739 42.62 78.3379 42.568 78.2339 42.568H76.6019C76.5459 42.568 76.5019 42.556 76.4699 42.532C76.4459 42.508 76.4339 42.46 76.4339 42.388V41.62C76.4339 41.524 76.4899 41.476 76.6019 41.476L79.7219 41.488C79.8179 41.488 79.8899 41.512 79.9379 41.56C79.9859 41.6 80.0099 41.656 80.0099 41.728V45.832C80.0099 45.888 79.9939 45.932 79.9619 45.964C79.9379 45.988 79.9019 46 79.8539 46H79.5059C79.4419 46 79.3859 45.988 79.3379 45.964C79.2979 45.94 79.2579 45.892 79.2179 45.82L78.9539 44.872C78.9379 44.84 78.9179 44.824 78.8939 44.824C78.8779 44.824 78.8579 44.844 78.8339 44.884C78.6819 45.084 78.4939 45.28 78.2699 45.472C78.0539 45.664 77.7819 45.82 77.4539 45.94C77.1339 46.06 76.7419 46.12 76.2779 46.12ZM88.8308 45.712C88.8628 45.784 88.8628 45.852 88.8308 45.916C88.7988 45.972 88.7468 46 88.6748 46H87.2108C87.0988 46 87.0188 45.936 86.9708 45.808L85.5908 42.304C85.5508 42.2 85.4428 42.148 85.2668 42.148H83.8268C83.7708 42.148 83.7308 42.164 83.7068 42.196C83.6908 42.22 83.6828 42.248 83.6828 42.28V45.748C83.6828 45.916 83.5908 46 83.4068 46H82.1348C82.0468 46 81.9868 45.984 81.9548 45.952C81.9228 45.912 81.9068 45.856 81.9068 45.784V37.3C81.9068 37.164 81.9668 37.096 82.0868 37.096H85.6988C86.7228 37.096 87.5188 37.304 88.0868 37.72C88.6628 38.128 88.9508 38.72 88.9508 39.496C88.9508 39.92 88.8708 40.292 88.7108 40.612C88.5508 40.924 88.3428 41.184 88.0868 41.392C87.8308 41.592 87.5588 41.744 87.2708 41.848C87.1988 41.864 87.1828 41.916 87.2228 42.004L88.8308 45.712ZM85.4468 40.924C85.9908 40.924 86.4028 40.816 86.6828 40.6C86.9708 40.384 87.1148 40.06 87.1148 39.628C87.1148 39.188 86.9788 38.86 86.7068 38.644C86.4348 38.42 86.0628 38.308 85.5908 38.308H83.8988C83.7548 38.308 83.6828 38.364 83.6828 38.476V40.744C83.6828 40.864 83.7348 40.924 83.8388 40.924H85.4468ZM90.7014 37.3C90.7014 37.164 90.7614 37.096 90.8814 37.096H96.7014C96.8054 37.096 96.8574 37.156 96.8574 37.276V38.188C96.8574 38.34 96.7854 38.416 96.6414 38.416H92.6814C92.5454 38.416 92.4774 38.472 92.4774 38.584V40.684C92.4774 40.804 92.5334 40.864 92.6454 40.864H95.3814C95.5014 40.864 95.5614 40.924 95.5614 41.044V42.016C95.5614 42.056 95.5494 42.092 95.5254 42.124C95.5014 42.148 95.4574 42.16 95.3934 42.16H92.6334C92.5294 42.16 92.4774 42.208 92.4774 42.304V44.536C92.4774 44.632 92.5214 44.68 92.6094 44.68H96.8094C96.9374 44.68 97.0014 44.736 97.0014 44.848V45.82C97.0014 45.868 96.9854 45.912 96.9534 45.952C96.9214 45.984 96.8694 46 96.7974 46H90.9294C90.7774 46 90.7014 45.928 90.7014 45.784V37.3ZM98.6758 37.3C98.6758 37.164 98.7358 37.096 98.8558 37.096L104.676 37.096C104.78 37.096 104.832 37.156 104.832 37.276V38.188C104.832 38.34 104.76 38.416 104.616 38.416L100.656 38.416C100.52 38.416 100.452 38.472 100.452 38.584V40.684C100.452 40.804 100.508 40.864 100.62 40.864L103.356 40.864C103.476 40.864 103.536 40.924 103.536 41.044V42.016C103.536 42.056 103.524 42.092 103.5 42.124C103.476 42.148 103.432 42.16 103.368 42.16L100.608 42.16C100.504 42.16 100.452 42.208 100.452 42.304V44.536C100.452 44.632 100.496 44.68 100.584 44.68H104.784C104.912 44.68 104.976 44.736 104.976 44.848V45.82C104.976 45.868 104.96 45.912 104.928 45.952C104.896 45.984 104.844 46 104.772 46H98.9038C98.7518 46 98.6758 45.928 98.6758 45.784V37.3ZM113.706 37.096C113.802 37.096 113.85 37.152 113.85 37.264V45.82C113.85 45.876 113.83 45.92 113.79 45.952C113.758 45.984 113.71 46 113.646 46H112.65C112.594 46 112.546 45.996 112.506 45.988C112.466 45.972 112.418 45.932 112.362 45.868L108.258 40.036C108.226 39.988 108.194 39.968 108.162 39.976C108.138 39.984 108.126 40.008 108.126 40.048V45.808C108.134 45.936 108.066 46 107.922 46H106.866C106.722 46 106.65 45.936 106.65 45.808V37.3C106.65 37.164 106.714 37.096 106.842 37.096H108.042C108.122 37.096 108.182 37.108 108.222 37.132C108.262 37.148 108.306 37.188 108.354 37.252L112.218 42.82C112.266 42.884 112.306 42.912 112.338 42.904C112.378 42.888 112.398 42.848 112.398 42.784V37.288C112.398 37.16 112.462 37.096 112.59 37.096H113.706Z" fill="black"/>
</svg>
