<svg width="140" height="117" viewBox="0 0 140 117" fill="none" xmlns="http://www.w3.org/2000/svg">
<path d="M10.0142 62.01L14.3052 66.8619L15.5288 68.2449C15.6736 68.4376 15.8961 68.5808 16.156 68.6485C16.4292 68.7089 16.7199 68.677 16.9652 68.5596C17.2009 68.4436 17.3736 68.2557 17.4468 68.0355C17.507 67.8202 17.507 67.5452 17.3418 67.3592L13.0508 62.5014L11.8272 61.1184C11.682 60.926 11.4597 60.7829 11.2 60.7148C10.9268 60.6542 10.636 60.6862 10.3908 60.8037C10.155 60.9199 9.98201 61.1077 9.9078 61.3278C9.849 61.5443 9.849 61.8181 10.0142 62.0041V62.01Z" fill="black"/>
<path d="M23.1252 51.8942C24.8264 53.9168 26.3526 56.0384 27.692 58.2427C28.0653 58.8667 28.4275 59.4942 28.7784 60.1252C28.9173 60.3228 29.1427 60.4675 29.407 60.5289C29.6802 60.5892 29.9709 60.5573 30.2162 60.4399C30.4519 60.324 30.6246 60.136 30.6978 59.9158C30.7581 59.687 30.7209 59.4478 30.5928 59.2395C29.3601 56.9921 27.9374 54.8209 26.3354 52.7425C25.8846 52.1559 25.4179 51.578 24.9354 51.0086C24.7913 50.8153 24.5686 50.6719 24.3082 50.6049C24.035 50.5444 23.7442 50.5763 23.499 50.6938C23.0538 50.9337 22.785 51.4929 23.1224 51.8942H23.1252Z" fill="black"/>
<path d="M39.732 44.9912L42.2128 51.9632L42.9198 53.9522C43.0766 54.3909 43.6646 54.7127 44.2106 54.5641C44.7566 54.4155 45.1122 53.9569 44.9442 53.4854L42.4648 46.5133L41.7564 44.5243C41.601 44.0844 41.013 43.7627 40.4656 43.9112C39.9182 44.0598 39.564 44.5196 39.732 44.99V44.9912Z" fill="black"/>
<path d="M59.8444 40.1451C59.8298 42.7036 60.0018 45.2605 60.3596 47.8016C60.4707 48.5862 60.5971 49.369 60.739 50.1497C60.7754 50.3533 61.019 50.5756 61.2206 50.6751C61.4614 50.792 61.7478 50.8245 62.0172 50.7655C62.2865 50.7065 62.5171 50.5609 62.6584 50.3603C62.7851 50.1516 62.8221 49.9129 62.7634 49.6841C62.6971 49.3229 62.6351 48.961 62.5772 48.5983L62.615 48.8323C62.2554 46.5921 62.0395 44.3374 61.9682 42.0779C61.9486 41.4336 61.9407 40.7894 61.9444 40.1451C61.9444 39.6864 61.4586 39.2465 60.8944 39.2676C60.6174 39.2715 60.353 39.3652 60.1571 39.5289C59.9612 39.6926 59.8491 39.9136 59.8444 40.1451Z" fill="black"/>
<path d="M79.38 39.6116C79.3165 40.0648 79.2493 40.5164 79.1784 40.9665L79.2148 40.7325C78.8256 43.1505 78.2973 45.5463 77.63 47.9198C77.4433 48.5937 77.2422 49.2653 77.0266 49.9345C76.8866 50.378 77.203 50.908 77.7602 51.0133C78.0283 51.0713 78.3129 51.0398 78.5538 50.9256C78.7947 50.8114 78.973 50.6234 79.051 50.4014C79.911 47.6869 80.5878 44.9343 81.0782 42.1564C81.2285 41.3093 81.3624 40.4607 81.48 39.6105C81.4804 39.4953 81.4536 39.3812 81.4009 39.2748C81.3483 39.1683 81.271 39.0717 81.1734 38.9904C81.0759 38.9088 80.9601 38.8441 80.8327 38.8C80.7052 38.7559 80.5686 38.7332 80.4307 38.7332C80.2927 38.7332 80.1562 38.7559 80.0287 38.8C79.9013 38.8441 79.7855 38.9088 79.688 38.9904C79.5046 39.1622 79.3961 39.3807 79.38 39.6105V39.6116Z" fill="black"/>
<path d="M99.2418 43.2C98.8209 44.2647 98.3495 45.3146 97.8278 46.3497L97.9328 46.1402C97.0752 47.8381 96.0851 49.487 94.969 51.0765C94.6517 51.5296 94.325 51.9774 93.989 52.4196C93.8506 52.6205 93.8119 52.8587 93.8813 53.0831C93.9506 53.3076 94.1225 53.5003 94.36 53.62C94.6018 53.7326 94.8862 53.7627 95.1539 53.7041C95.4216 53.6454 95.6518 53.5025 95.7964 53.3053C97.5903 50.9489 99.1061 48.4525 100.323 45.8513C100.661 45.1305 100.976 44.4024 101.266 43.6669C101.338 43.4424 101.301 43.2035 101.164 43.0015C101.027 42.7995 100.8 42.6506 100.533 42.5869C100.264 42.5305 99.9805 42.5628 99.74 42.677C99.4995 42.7912 99.3211 42.9786 99.2418 43.2Z" fill="black"/>
<path d="M116.775 50.2984L111.455 56.6328L109.95 58.4252C109.881 58.5246 109.835 58.6346 109.816 58.7488C109.797 58.863 109.806 58.9792 109.841 59.0907C109.876 59.2022 109.937 59.3069 110.02 59.3987C110.104 59.4904 110.208 59.5676 110.327 59.6256C110.865 59.8596 111.426 59.7134 111.763 59.3109L117.083 52.9765L118.588 51.1841C118.658 51.0845 118.704 50.9745 118.723 50.8602C118.742 50.7459 118.733 50.6296 118.698 50.518C118.663 50.4064 118.602 50.3016 118.519 50.2098C118.435 50.1179 118.331 50.0406 118.212 49.9825C117.674 49.7485 117.113 49.8959 116.775 50.2984Z" fill="black"/>
<path d="M129.92 58.5339C128.028 60.3385 126.021 62.0569 123.908 63.6819C123.316 64.1374 122.715 64.5851 122.107 65.025C121.687 65.3257 121.709 65.961 122.107 66.2652C122.307 66.4247 122.573 66.5136 122.849 66.5136C123.126 66.5136 123.392 66.4247 123.592 66.2652C125.763 64.6948 127.831 63.0279 129.787 61.2717C130.336 60.7803 130.875 60.2814 131.404 59.7752C131.595 59.6075 131.705 59.3866 131.712 59.1551C131.71 58.9225 131.599 58.6997 131.404 58.5339C131.008 58.2297 130.306 58.1653 129.92 58.5339Z" fill="black"/>
<path d="M132.798 74.5535L137.031 72.1304C137.262 72.0105 137.433 71.8241 137.512 71.6063C137.585 71.3781 137.547 71.1351 137.407 70.93C137.116 70.5544 136.455 70.338 135.969 70.6153L131.74 73.0383C131.508 73.1578 131.337 73.3444 131.258 73.5625C131.185 73.7907 131.223 74.0338 131.363 74.2388C131.653 74.6143 132.315 74.8308 132.8 74.5535H132.798Z" fill="black"/>
<path d="M2.9694 74.4647L9.98899 78.1455C10.2299 78.2611 10.5156 78.2928 10.7843 78.234C11.0531 78.1751 11.2833 78.0303 11.4254 77.8308C11.5584 77.6292 11.5935 77.3925 11.5234 77.1699C11.4532 76.9473 11.2833 76.7558 11.0488 76.635L4.0306 72.9495C3.78944 72.8339 3.50357 72.8021 3.23461 72.8609C2.96565 72.9198 2.73515 73.0647 2.5928 73.2642C2.4581 73.4663 2.42208 73.704 2.49226 73.9277C2.56245 74.1515 2.73341 74.3438 2.9694 74.4647Z" fill="black"/>
</svg>
